<svg xmlns="http://www.w3.org/2000/svg" viewBox="0 0 380 520" width="380" height="520">
<rect width="380" height="520" fill="#ffffff"/>
<defs><clipPath id="fl"><circle cx="110" cy="400" r="67"/></clipPath></defs>
<rect x="214" y="30" width="52" height="115" rx="10" fill="#e6f2fa" stroke="#555" stroke-width="3"/>
<path d="M266,48 L292,48 M214,128 L188,128" stroke="#555" stroke-width="8"/>
<path d="M110,330 L110,170 L240,170" fill="none" stroke="#555" stroke-width="22" stroke-linejoin="round"/><path d="M240,20 L240,395" fill="none" stroke="#555" stroke-width="22" stroke-linejoin="round"/><path d="M240,262 L110,300" fill="none" stroke="#555" stroke-width="22" stroke-linejoin="round"/>
<circle cx="110" cy="400" r="70" fill="#fff" stroke="#555" stroke-width="3"/>
<path d="M110,330 L110,170 L240,170" fill="none" stroke="#fff" stroke-width="16" stroke-linejoin="round"/><path d="M240,20 L240,395" fill="none" stroke="#fff" stroke-width="16" stroke-linejoin="round"/><path d="M240,262 L110,300" fill="none" stroke="#fff" stroke-width="16" stroke-linejoin="round"/>
<rect x="40" y="410" width="140" height="70" fill="#f7e7a1" clip-path="url(#fl)"/>
<circle cx="95" cy="440" r="4" fill="none" stroke="#b08d2a"/><circle cx="120" cy="428" r="5" fill="none" stroke="#b08d2a"/><circle cx="108" cy="455" r="3" fill="none" stroke="#b08d2a"/>
<circle cx="110" cy="400" r="70" fill="none" stroke="#555" stroke-width="3"/>
<rect x="232" y="265" width="16" height="36" fill="#f7e7a1"/>
<rect x="232" y="301" width="16" height="92" fill="#9fd3f0"/>
<line x1="252" y1="280" x2="260" y2="280" stroke="#555" stroke-width="1.5"/><line x1="252" y1="292" x2="256" y2="292" stroke="#555" stroke-width="1.5"/><line x1="252" y1="304" x2="260" y2="304" stroke="#555" stroke-width="1.5"/><line x1="252" y1="316" x2="256" y2="316" stroke="#555" stroke-width="1.5"/><line x1="252" y1="328" x2="260" y2="328" stroke="#555" stroke-width="1.5"/><line x1="252" y1="340" x2="256" y2="340" stroke="#555" stroke-width="1.5"/><line x1="252" y1="352" x2="260" y2="352" stroke="#555" stroke-width="1.5"/><line x1="252" y1="364" x2="256" y2="364" stroke="#555" stroke-width="1.5"/><line x1="252" y1="376" x2="260" y2="376" stroke="#555" stroke-width="1.5"/><line x1="252" y1="388" x2="256" y2="388" stroke="#555" stroke-width="1.5"/>
<rect x="226" y="393" width="28" height="22" rx="3" fill="#ddd" stroke="#555" stroke-width="2"/>
<ellipse cx="272" cy="404" rx="14" ry="7" fill="#ddd" stroke="#555" stroke-width="2"/>
<path d="M240,415 L240,452" stroke="#555" stroke-width="9"/><path d="M240,415 L240,450" stroke="#fff" stroke-width="4"/>
<path d="M60,500 q10,-12 20,0 q10,12 20,0 q10,-12 20,0 q10,12 20,0 q10,-12 20,0" fill="none" stroke="#c0392b" stroke-width="2"/>
<g font-family="Arial, 'Noto Sans KR', 'Malgun Gothic', sans-serif" font-size="14" fill="#222">
<text x="300" y="92">냉각기</text>
<text x="292" y="409">콕(stopcock)</text>
<text x="110" y="515" text-anchor="middle" font-size="12">가열</text>
</g></svg>